<svg xmlns="http://www.w3.org/2000/svg" width="316" height="19" viewBox="0 0 316 19">
  <g id="Group_22" data-name="Group 22" transform="translate(-212 -1052)">
    <g id="copyright-24px" transform="translate(212 1053)">
      <g id="Group_3" data-name="Group 3">
        <rect id="Rectangle_1118" data-name="Rectangle 1118" width="16" height="16" fill="none"/>
      </g>
      <g id="Group_6" data-name="Group 6" transform="translate(2 2)">
        <g id="Group_5" data-name="Group 5">
          <g id="Group_4" data-name="Group 4">
            <path id="Path_209" data-name="Path 209" d="M7.928,6.284a1.007,1.007,0,0,1,.978,1H9.98A1.925,1.925,0,0,0,7.91,5.366c-1.326,0-2.31.834-2.31,2.718a2.275,2.275,0,0,0,2.3,2.544,1.952,1.952,0,0,0,2.064-1.77H8.894a.929.929,0,0,1-.978.864C7.13,9.7,6.8,9.086,6.8,8.084,6.8,6.35,7.568,6.3,7.928,6.284ZM8,2a6,6,0,1,0,6,6A6,6,0,0,0,8,2ZM8,12.8A4.8,4.8,0,1,1,12.8,8,4.806,4.806,0,0,1,8,12.8Z" transform="translate(-2 -2)" fill="#f7f7f7"/>
          </g>
        </g>
      </g>
    </g>
    <text id="_2021._ATI_Business_Group._All_right_reserved._" data-name="2021. ATI Business Group. All right reserved. " transform="translate(232 1067)" fill="#f7f7f7" font-size="16" font-family="Cabin"><tspan x="0" y="0">2021. ATI Business Group. All right reserved. </tspan></text>
  </g>
</svg>
