<svg xmlns="http://www.w3.org/2000/svg" width="455.373" height="311.051" viewBox="0 0 455.373 311.051">
  <g id="Group_67" data-name="Group 67" transform="translate(0 0.668)">
    <path id="Path_265" data-name="Path 265" d="M288.65-185.363l140.7-68.529A21.107,21.107,0,0,1,459.9-235.016a21.107,21.107,0,0,1-11.662,18.876l-140.7,68.529a21.107,21.107,0,0,1-30.552-18.876,21.106,21.106,0,0,1,11.662-18.876" transform="translate(-276.988 396.478)" fill="#2b3863"/>
    <path id="Path_266" data-name="Path 266" d="M49.682-198.008l140.443-68.326a21.068,21.068,0,0,1,30.5,18.82,21.041,21.041,0,0,1-11.641,18.82L68.538-160.368a21.068,21.068,0,0,1-30.5-18.82A21.041,21.041,0,0,1,49.682-198.008Z" transform="translate(201.235 421.677)" fill="none" stroke="#286b82" stroke-miterlimit="10" stroke-width="1"/>
    <path id="Path_267" data-name="Path 267" d="M205.538-205.364,420.95-313.149A21.107,21.107,0,0,1,451.5-294.273,21.108,21.108,0,0,1,439.84-275.4L224.428-167.612a21.107,21.107,0,0,1-30.552-18.876,21.105,21.105,0,0,1,11.662-18.876" transform="translate(-185.48 475.736)" fill="#ed494f"/>
    <path id="Path_268" data-name="Path 268" d="M282.9-109.827l23.758-11.562a21.222,21.222,0,0,1,30.509,19.083,21.223,21.223,0,0,1-11.936,19.084L301.473-71.66a21.223,21.223,0,0,1-30.509-19.083A21.222,21.222,0,0,1,282.9-109.827" transform="translate(-148.233 188.025)" fill="#286b82"/>
    <path id="Path_269" data-name="Path 269" d="M255.392-255.91c11.764-.046,21.291-9.3,21.348-20.643a19.482,19.482,0,0,0-6.268-14.322,22.631,22.631,0,0,0-15.686-6.147h-.144c-11.779.087-20.962,9.141-20.943,20.579.012,11.7,9.354,20.533,21.693,20.533" transform="translate(-50.541 547.907)" fill="#ed494f"/>
    <path id="Path_270" data-name="Path 270" d="M25.013-44.948,240.151-152.5a21.079,21.079,0,0,1,30.513,18.834h0a21.057,21.057,0,0,1-11.648,18.834L43.879-7.278A21.079,21.079,0,0,1,13.366-26.113,21.059,21.059,0,0,1,25.013-44.948Z" transform="translate(175.868 154.75)" fill="none" stroke="#ed494f" stroke-miterlimit="10" stroke-width="1"/>
    <path id="Path_271" data-name="Path 271" d="M16.666-108.372,157.109-176.7a21.068,21.068,0,0,1,30.5,18.82,21.041,21.041,0,0,1-11.641,18.82L35.522-70.732a21.068,21.068,0,0,1-30.5-18.82A21.041,21.041,0,0,1,16.666-108.372Z" transform="translate(267.267 242.405)" fill="none" stroke="#2b3863" stroke-miterlimit="10" stroke-width="1"/>
  </g>
</svg>
