<svg xmlns="http://www.w3.org/2000/svg" width="1000" height="700" viewBox="0 0 1000 700">
  <g id="Group_53" data-name="Group 53" transform="translate(-8496 -1661)">
    <rect id="Rectangle_1130" data-name="Rectangle 1130" width="1000" height="700" rx="5" transform="translate(8496 1661)" fill="#fff"/>
    <g id="close-24px" transform="translate(9462 1673)">
      <path id="Path_227" data-name="Path 227" d="M0,0H24V24H0Z" fill="none"/>
      <path id="Path_228" data-name="Path 228" d="M19,6.41,17.59,5,12,10.59,6.41,5,5,6.41,10.59,12,5,17.59,6.41,19,12,13.41,17.59,19,19,17.59,13.41,12Z"/>
    </g>
    <text id="PRICE" transform="translate(9230 1730)" fill="#434343" font-size="22" font-family="Cabin"><tspan x="0" y="0">PRICE</tspan></text>
    <text id="ITINERARY" transform="translate(8989 1730)" fill="#105088" font-size="22" font-family="Cabin"><tspan x="0" y="0">ITINERARY</tspan></text>
    <text id="PASSENGER_S_" data-name="PASSENGER(S)" transform="translate(8706 1730)" fill="#434343" font-size="22" font-family="Cabin"><tspan x="0" y="0">PASSENGER(S)</tspan></text>
    <line id="Line_11" data-name="Line 11" x2="189" transform="translate(8946.5 1747.5)" fill="none" stroke="#429dd6" stroke-width="5"/>
    <line id="Line_7" data-name="Line 7" x2="800" transform="translate(8592.5 1883.5)" fill="none" stroke="#707070" stroke-width="1" stroke-dasharray="5 5"/>
    <text id="FLIGHT" transform="translate(8598 1788)" fill="#06243e" font-size="18" font-family="Cabin"><tspan x="0" y="0">FLIGHT</tspan></text>
    <text id="_23_Nov_2020" data-name="23 Nov 2020" transform="translate(8620 1855)" fill="#c44a21" font-size="18" font-family="Cabin"><tspan x="0" y="0">23 Nov 2020</tspan></text>
    <text id="Jakarta_CGK_" data-name="Jakarta (CGK) " transform="translate(8620 1821)" fill="#434343" font-size="18" font-family="Cabin" font-weight="700"><tspan x="0" y="0">Jakarta (CGK) </tspan></text>
    <g id="arrow_right_alt-24px" transform="translate(8740 1802)">
      <path id="Path_201" data-name="Path 201" d="M0,0H24V24H0Z" fill="none"/>
      <path id="Path_202" data-name="Path 202" d="M16.01,11H4v2H16.01v3L20,12,16.01,8Z" fill="#434343"/>
    </g>
    <text id="Denpasar_DPS_" data-name="Denpasar (DPS) " transform="translate(8771 1821)" fill="#434343" font-size="18" font-family="Cabin" font-weight="700"><tspan x="0" y="0">Denpasar (DPS) </tspan></text>
    <g id="date_range-24px" transform="translate(8590 1836)">
      <path id="Path_203" data-name="Path 203" d="M0,0H24V24H0Z" fill="none"/>
      <path id="Path_204" data-name="Path 204" d="M9,11H7v2H9Zm4,0H11v2h2Zm4,0H15v2h2Zm2-7H18V2H16V4H8V2H6V4H5A1.991,1.991,0,0,0,3.01,6L3,20a2,2,0,0,0,2,2H19a2.006,2.006,0,0,0,2-2V6A2.006,2.006,0,0,0,19,4Zm0,16H5V9H19Z" fill="#434343"/>
    </g>
    <g id="airplanemode_active-24px" transform="translate(8589 1803)">
      <path id="Path_205" data-name="Path 205" d="M22,16V14L13.5,9V3.5a1.5,1.5,0,0,0-3,0V9L2,14v2l8.5-2.5V19L8,20.5V22l4-1,4,1V20.5L13.5,19V13.5Z" fill="#434343"/>
      <path id="Path_206" data-name="Path 206" d="M0,0H24V24H0Z" fill="none"/>
    </g>
    <line id="Line_12" data-name="Line 12" y2="275" transform="translate(8609.5 1939.5)" fill="none" stroke="#235184" stroke-width="2"/>
    <g id="flight_land-24px" transform="translate(8598 2221)">
      <g id="Group_45" data-name="Group 45">
        <rect id="Rectangle_1139" data-name="Rectangle 1139" width="24" height="24" fill="none"/>
      </g>
      <g id="Group_48" data-name="Group 48">
        <g id="Group_47" data-name="Group 47">
          <g id="Group_46" data-name="Group 46">
            <path id="Path_229" data-name="Path 229" d="M2.5,19h19v2H2.5Zm16.84-3.15a1.5,1.5,0,0,0,.78-2.9l-5.31-1.42L12.05,2.51,10.12,2v8.28L5.15,8.95,4.22,6.63,2.77,6.24v5.17Z" fill="#105088"/>
          </g>
        </g>
      </g>
    </g>
    <g id="flight_takeoff-24px" transform="translate(8598 1909)">
      <g id="Group_49" data-name="Group 49">
        <rect id="Rectangle_1140" data-name="Rectangle 1140" width="24" height="24" fill="none"/>
      </g>
      <g id="Group_52" data-name="Group 52">
        <g id="Group_51" data-name="Group 51">
          <g id="Group_50" data-name="Group 50">
            <path id="Path_230" data-name="Path 230" d="M2.5,19h19v2H2.5ZM22.07,9.64a1.5,1.5,0,0,0-1.84-1.06L14.92,10,8.02,3.57l-1.93.51,4.14,7.17L5.26,12.58,3.29,11.04l-1.45.39,2.59,4.49s7.12-1.9,16.57-4.43A1.522,1.522,0,0,0,22.07,9.64Z" fill="#105088"/>
          </g>
        </g>
      </g>
    </g>
    <text id="_07.05_Jakarta_Soekarno-Hatta_International_CGK_Terminal_3" data-name="07.05
Jakarta
Soekarno-Hatta International (CGK)
Terminal 3" transform="translate(8636 1957)" fill="#c44a21" font-size="18" font-family="Cabin"><tspan x="0" y="0">07.05</tspan><tspan fill="#434343"><tspan x="0" y="22">Jakarta</tspan></tspan><tspan fill="#434343" font-weight="600"><tspan x="0" y="44">Soekarno-Hatta International (CGK)</tspan></tspan><tspan fill="#434343"><tspan x="0" y="66">Terminal 3</tspan></tspan></text>
    <text id="_10.10_Denpasar_Bali_Ngurah_Rai_DPS_Terminal_D" data-name="10.10
Denpasar Bali
Ngurah Rai (DPS)
Terminal D" transform="translate(8636 2144)" fill="#c44a21" font-size="18" font-family="Cabin"><tspan x="0" y="0">10.10</tspan><tspan fill="#434343"><tspan x="0" y="22">Denpasar Bali</tspan></tspan><tspan fill="#434343" font-weight="600"><tspan x="0" y="44">Ngurah Rai (DPS)</tspan></tspan><tspan fill="#434343"><tspan x="0" y="66">Terminal D</tspan></tspan></text>
    <line id="Line_13" data-name="Line 13" y2="275" transform="translate(8946.5 1939.5)" fill="none" stroke="#235184" stroke-width="1" stroke-dasharray="10 5" opacity="0.165"/>
    <text id="Duration" transform="translate(8973 1957)" fill="#434343" font-size="18" font-family="Cabin"><tspan x="0" y="0">Duration</tspan></text>
    <text id="Airline" transform="translate(8973 1988)" fill="#434343" font-size="18" font-family="Cabin"><tspan x="0" y="0">Airline</tspan></text>
    <text id="Aircraft" transform="translate(8973 2019)" fill="#434343" font-size="18" font-family="Cabin"><tspan x="0" y="0">Aircraft</tspan></text>
    <text id="Cabin" transform="translate(8973 2050)" fill="#434343" font-size="18" font-family="Cabin"><tspan x="0" y="0">Cabin</tspan></text>
    <text id="_02h05m" data-name="02h05m" transform="translate(9164 1957)" fill="#434343" font-size="18" font-family="Cabin" font-weight="500"><tspan x="0" y="0">02h05m</tspan></text>
    <text id="Garuda_Indonesia_GA_438_" data-name="Garuda Indonesia (GA 438)" transform="translate(9164 1988)" fill="#434343" font-size="18" font-family="Cabin" font-weight="500"><tspan x="0" y="0">Garuda Indonesia (GA 438)</tspan></text>
    <text id="Boeing_737-800" data-name="Boeing 737-800" transform="translate(9164 2019)" fill="#434343" font-size="18" font-family="Cabin" font-weight="500"><tspan x="0" y="0">Boeing 737-800</tspan></text>
    <text id="Economy" transform="translate(9164 2050)" fill="#434343" font-size="18" font-family="Cabin" font-weight="500"><tspan x="0" y="0">Economy</tspan></text>
  </g>
</svg>
