<svg xmlns="http://www.w3.org/2000/svg" xmlns:xlink="http://www.w3.org/1999/xlink" width="706" height="58" viewBox="0 0 706 58">
  <defs>
    <filter id="Ellipse_112" x="563" y="0" width="58" height="58" filterUnits="userSpaceOnUse">
      <feOffset dy="3" input="SourceAlpha"/>
      <feGaussianBlur stdDeviation="3" result="blur"/>
      <feFlood flood-opacity="0.161"/>
      <feComposite operator="in" in2="blur"/>
      <feComposite in="SourceGraphic"/>
    </filter>
  </defs>
  <g id="Group_27" data-name="Group 27" transform="translate(-609 -14)">
    <g transform="matrix(1, 0, 0, 1, 609, 14)" filter="url(#Ellipse_112)">
      <circle id="Ellipse_112-2" data-name="Ellipse 112" cx="20" cy="20" r="20" transform="translate(572 6)" fill="#009edb"/>
    </g>
    <g id="Group_26" data-name="Group 26">
      <text id="SELECT" transform="translate(661 46)" fill="#434343" font-size="18" font-family="SF Pro" font-weight="500"><tspan x="0" y="0">SELECT</tspan></text>
      <text id="BOOK" transform="translate(946 46)" fill="#434343" font-size="18" font-family="SF Pro" font-weight="500"><tspan x="0" y="0">BOOK</tspan></text>
      <text id="PAYMENT" transform="translate(1232 46)" fill="#009edb" font-size="18" font-family="SF Pro" font-weight="500"><tspan x="0" y="0">PAYMENT</tspan></text>
      <text id="_3" data-name="3" transform="translate(1196 47)" fill="#fff" font-size="18" font-family="Roboto-Bold, Roboto" font-weight="700"><tspan x="0" y="0">3</tspan></text>
      <line id="Line_3" data-name="Line 3" x2="124" transform="translate(746.5 40.5)" fill="none" stroke="#707070" stroke-width="1"/>
      <line id="Line_4" data-name="Line 4" x2="124" transform="translate(1030.5 40.5)" fill="none" stroke="#707070" stroke-width="1"/>
      <g id="check_circle_outline-24px" transform="translate(609 20)">
        <path id="Path_216" data-name="Path 216" d="M0,0H40V40H0ZM0,0H40V40H0Z" fill="none"/>
        <path id="Path_217" data-name="Path 217" d="M28.262,12.044,16.4,23.906,9.938,17.462,7.4,20l9,9L30.8,14.6ZM20,2A18,18,0,1,0,38,20,18.007,18.007,0,0,0,20,2Zm0,32.4A14.4,14.4,0,1,1,34.4,20,14.4,14.4,0,0,1,20,34.4Z" transform="translate(0 0)" fill="#434343"/>
      </g>
      <g id="check_circle_outline-24px-2" data-name="check_circle_outline-24px" transform="translate(895 20)">
        <path id="Path_216-2" data-name="Path 216" d="M0,0H40V40H0ZM0,0H40V40H0Z" fill="none"/>
        <path id="Path_217-2" data-name="Path 217" d="M28.262,12.044,16.4,23.906,9.938,17.462,7.4,20l9,9L30.8,14.6ZM20,2A18,18,0,1,0,38,20,18.007,18.007,0,0,0,20,2Zm0,32.4A14.4,14.4,0,1,1,34.4,20,14.4,14.4,0,0,1,20,34.4Z" transform="translate(0 0)" fill="#434343"/>
      </g>
    </g>
  </g>
</svg>
