<svg xmlns="http://www.w3.org/2000/svg" width="301" height="52" viewBox="0 0 301 52">
  <g id="Group_31" data-name="Group 31" transform="translate(-490 -945)">
    <text id="Redeem_Point" data-name="Redeem Point" transform="translate(490 959)" fill="#9b9696" font-size="14" font-family="Cabin"><tspan x="0" y="0">Redeem Point</tspan></text>
    <text id="I_d_like_to_redeem_points_from_this_credit_card" data-name="I’d like to redeem points from this credit card" transform="translate(514 993)" fill="#9b9696" font-size="14" font-family="Cabin"><tspan x="0" y="0">I’d like to redeem points from this credit card</tspan></text>
    <g id="help-24px" transform="translate(775 946)">
      <path id="Path_212" data-name="Path 212" d="M0,0H16V16H0Z" fill="none"/>
      <path id="Path_213" data-name="Path 213" d="M8,2a6,6,0,1,0,6,6A6,6,0,0,0,8,2Zm.6,10.2H7.4V11H8.6ZM9.842,7.55,9.3,8.1a2.043,2.043,0,0,0-.7,1.7H7.4V9.5a2.415,2.415,0,0,1,.7-1.7l.744-.756A1.173,1.173,0,0,0,9.2,6.2a1.2,1.2,0,0,0-2.4,0H5.6a2.4,2.4,0,1,1,4.8,0A1.909,1.909,0,0,1,9.842,7.55Z" fill="#9b9696"/>
    </g>
    <g id="check_circle-24px" transform="translate(490 980)">
      <path id="Path_214" data-name="Path 214" d="M0,0H16V16H0Z" fill="none"/>
      <path id="Path_215" data-name="Path 215" d="M8,2a6,6,0,1,0,6,6A6,6,0,0,0,8,2ZM6.8,11l-3-3,.846-.846L6.8,9.3l4.554-4.554L12.2,5.6Z" fill="#009edb"/>
    </g>
  </g>
</svg>
