<svg id="lock-24px" xmlns="http://www.w3.org/2000/svg" width="16" height="16" viewBox="0 0 16 16">
  <g id="Group_1" data-name="Group 1">
    <path id="Path_198" data-name="Path 198" d="M0,0H16V16H0Z" fill="none"/>
    <path id="Path_199" data-name="Path 199" d="M0,0H16V16H0Z" fill="none" opacity="0.87"/>
  </g>
  <path id="Path_200" data-name="Path 200" d="M12.193,5.5h-.585V4.217A3.083,3.083,0,0,0,8.682,1,3.083,3.083,0,0,0,5.756,4.217V5.5H5.17A1.236,1.236,0,0,0,4,6.791v6.434a1.236,1.236,0,0,0,1.17,1.287h7.023a1.236,1.236,0,0,0,1.17-1.287V6.791A1.236,1.236,0,0,0,12.193,5.5ZM6.926,4.217a1.847,1.847,0,0,1,1.756-1.93,1.847,1.847,0,0,1,1.756,1.93V5.5H6.926Zm5.267,9.008H5.17V6.791h7.023Zm-3.511-1.93a1.236,1.236,0,0,0,1.17-1.287,1.236,1.236,0,0,0-1.17-1.287,1.236,1.236,0,0,0-1.17,1.287A1.236,1.236,0,0,0,8.682,11.294Z" transform="translate(-0.682 -0.17)" fill="#434343"/>
</svg>
